<svg width="225" height="24" viewBox="0 0 225 24" fill="none" xmlns="http://www.w3.org/2000/svg">
<path d="M107.884 3.90451C109.2 3.90451 109.984 4.7765 109.984 6.03717C109.984 7.29785 109.2 8.10143 107.884 8.10143C106.5 8.10143 105.761 7.25272 105.761 6.03717C105.761 4.82162 106.5 3.90451 107.884 3.90451Z" fill="#142800"/>
<path d="M109.74 9.75806H106.004V23.5905H109.74V9.75806Z" fill="#142800"/>
<path d="M71.9172 7.68362V23.592H75.9496V7.68362H81.4334V5.03562H67.1313V7.68362H71.9172Z" fill="#142800"/>
<path d="M88.437 13.4236C87.9362 13.2926 87.4091 13.214 86.8558 13.214C85.0104 13.214 83.9825 14.3145 83.9825 16.5695V23.5935H80.2654V9.75515H83.7708V13.5546C84.457 10.9605 86.2484 9.38685 88.437 9.3621V13.4236Z" fill="#142800"/>
<path d="M116.352 23.5905V5.06183H112.641V23.5905H116.352Z" fill="#142800"/>
<path d="M128.125 13.9229C127.918 13.5401 126.971 12.0072 124.928 12.0072C123.004 12.0072 122.56 12.8908 122.618 13.4804C122.707 14.2461 123.122 14.629 125.579 15.1603C128.925 15.8373 130.939 16.9276 130.939 19.58C130.939 22.6443 128.096 23.9996 124.632 23.9996C122.826 23.9996 119.746 23.4988 118.237 20.7882L120.872 19.021C120.872 19.021 122.205 21.0838 124.573 21.0838C126.765 21.0838 126.972 20.1113 127.001 19.7576C127.061 19.168 126.883 18.5493 124.395 17.9888C120.872 17.2231 118.77 16.4268 118.77 13.5095C118.77 12.0072 120.103 9.29659 124.839 9.29659C129.244 9.29659 130.5 11.7178 130.75 12.1984C130.768 12.2346 130.782 12.2598 130.79 12.2721L128.125 13.9215V13.9229Z" fill="#142800"/>
<path fill-rule="evenodd" clip-rule="evenodd" d="M96.0348 15.6145C92.0738 16.3817 89.621 17.3571 89.621 20.4272L89.6195 20.4258C89.6195 22.6691 91.3336 23.9982 93.9046 23.9982C96.3282 23.9982 97.9546 22.8161 98.8409 20.7795C98.9591 22.9937 99.9636 23.9982 102.211 23.9982C103.275 23.9982 103.719 23.7914 104.221 23.4668V20.9862C103.955 21.1041 103.748 21.1929 103.364 21.1929C102.418 21.1929 102.241 20.8086 102.241 19.5101V14.6392C102.241 11.0377 99.9942 9.29513 96.4479 9.29513C93.3162 9.29513 91.1584 10.7421 89.9466 13.872L93.198 14.8168C93.7002 13.2518 94.439 12.1892 96.2713 12.1892C98.1036 12.1892 98.8131 12.9272 98.8131 13.8429C98.8131 14.9653 97.6013 15.2899 96.0348 15.6145ZM98.9314 16.5899V17.4458C98.9314 18.9817 97.7196 21.2847 95.1777 21.2847C93.7586 21.2847 93.1673 20.7533 93.1673 19.7794C93.1673 18.657 93.9367 18.1548 96.3005 17.5943C97.8086 17.2697 98.6058 17.0033 98.9314 16.5899Z" fill="#142800"/>
<path fill-rule="evenodd" clip-rule="evenodd" d="M35.4816 23.592L35.4821 23.5905H38.6965L39.9098 19.7124H47.9222L49.188 23.5905H53.4585L46.9484 5.03708H41.8603L35.4821 23.5905H35.4802L35.4816 23.592ZM43.1787 9.3359L40.7537 17.0674H47.0535L44.4971 9.3359L43.8386 7.26582H43.7861L43.1802 9.3359H43.1787Z" fill="#142800"/>
<path d="M54.8718 23.592V5.03708H58.5889V23.592H54.8718Z" fill="#142800"/>
<path d="M61.4914 23.592V5.03708H65.2085V23.592H61.4914Z" fill="#142800"/>
<path fill-rule="evenodd" clip-rule="evenodd" d="M26.1061 7.41252C25.2619 5.80039 24.6095 5.03193 23.7626 5.03193C22.817 5.03193 22.4004 5.53238 21.8303 6.42665C21.3699 7.02692 20.9258 7.84871 20.1858 7.76667C19.4047 7.68463 18.9524 5.83868 18.3632 4.29355C17.5546 2.18779 17.0887 0 15.7456 0C14.9796 0 14.3094 0.697359 13.2707 2.25753L2.53887 18.7138C1.30548 20.7745 0.273554 22.2102 1.57957 23.5598C3.11444 25.0366 6.71866 22.4522 9.18542 20.8934C11.6522 19.3346 14.1738 17.8169 17.7369 17.8989C22.5334 18.0083 24.8631 22.8214 27.7684 23.7376C29.7418 24.3666 31.5507 23.6419 31.9345 21.6045C32.1606 20.4846 31.7686 19.3975 31.2273 18.238L26.1061 7.41252ZM25.7771 17.0648C24.8041 17.7895 23.4474 16.6272 22.5704 16.135C21.6385 15.6154 20.0625 14.3711 17.2394 14.4121C14.9371 14.4394 13.69 15.3009 12.3196 16.2307C9.34576 18.2544 6.65973 20.6063 5.89229 19.3893C5.39894 18.6099 6.72825 17.0511 9.85282 12.1833C12.0729 8.72383 13.6366 5.96174 14.7452 5.96174C15.9704 5.96174 16.0389 7.16366 16.2253 8.39566C16.5775 10.3578 17.5368 11.3793 18.7825 11.5406C20.179 11.7293 21.3863 10.5575 22.3456 10.5698C23.2419 10.5889 23.8311 11.8866 24.5712 13.2403C25.5085 14.9221 26.487 16.5315 25.7771 17.0648Z" fill="#142800"/>
<path d="M147.868 23.83C146.981 23.83 146.237 23.6687 145.635 23.346C145.041 23.016 144.59 22.5833 144.282 22.048C143.982 21.5127 143.831 20.926 143.831 20.288C143.831 19.6647 143.949 19.1257 144.183 18.671C144.425 18.209 144.763 17.8277 145.195 17.527C145.628 17.219 146.145 16.977 146.746 16.801C147.311 16.647 147.942 16.515 148.638 16.405C149.342 16.2877 150.054 16.1813 150.772 16.086C151.491 15.9907 152.162 15.899 152.785 15.811L152.081 16.218C152.103 15.162 151.891 14.381 151.443 13.875C151.003 13.369 150.241 13.116 149.155 13.116C148.437 13.116 147.806 13.281 147.263 13.611C146.728 13.9337 146.35 14.4617 146.13 15.195L144.271 14.634C144.557 13.5927 145.111 12.775 145.932 12.181C146.754 11.587 147.835 11.29 149.177 11.29C150.255 11.29 151.179 11.4843 151.949 11.873C152.727 12.2543 153.284 12.8337 153.621 13.611C153.79 13.9777 153.896 14.3773 153.94 14.81C153.984 15.2353 154.006 15.6827 154.006 16.152V23.5H152.268V20.651L152.675 20.915C152.228 21.8757 151.601 22.6017 150.794 23.093C149.995 23.5843 149.02 23.83 147.868 23.83ZM148.165 22.191C148.869 22.191 149.478 22.0663 149.991 21.817C150.512 21.5603 150.93 21.2267 151.245 20.816C151.561 20.398 151.766 19.9433 151.861 19.452C151.971 19.0853 152.03 18.6783 152.037 18.231C152.052 17.7763 152.059 17.428 152.059 17.186L152.741 17.483C152.103 17.571 151.476 17.6553 150.86 17.736C150.244 17.8167 149.661 17.9047 149.111 18C148.561 18.088 148.066 18.1943 147.626 18.319C147.304 18.4217 146.999 18.5537 146.713 18.715C146.435 18.8763 146.207 19.0853 146.031 19.342C145.863 19.5913 145.778 19.903 145.778 20.277C145.778 20.5997 145.859 20.9077 146.02 21.201C146.189 21.4943 146.446 21.7327 146.79 21.916C147.142 22.0993 147.601 22.191 148.165 22.191ZM163.279 23.5C162.575 23.6393 161.879 23.6943 161.189 23.665C160.507 23.643 159.899 23.5073 159.363 23.258C158.828 23.0013 158.421 22.6053 158.142 22.07C157.908 21.6007 157.779 21.1277 157.757 20.651C157.743 20.167 157.735 19.6207 157.735 19.012V8.32H159.693V18.924C159.693 19.408 159.697 19.8223 159.704 20.167C159.719 20.5117 159.796 20.8087 159.935 21.058C160.199 21.5273 160.617 21.8023 161.189 21.883C161.769 21.9637 162.465 21.9417 163.279 21.817V23.5ZM155.326 13.237V11.62H163.279V13.237H155.326ZM169.875 23.5V7.33H171.833V23.5H169.875ZM179.424 23.808C178.661 23.808 178.005 23.687 177.455 23.445C176.912 23.203 176.461 22.8803 176.102 22.477C175.743 22.0737 175.46 21.6263 175.255 21.135C175.05 20.6437 174.903 20.1413 174.815 19.628C174.734 19.1147 174.694 18.6343 174.694 18.187V11.62H176.674V17.571C176.674 18.1283 176.725 18.6673 176.828 19.188C176.931 19.7087 177.103 20.178 177.345 20.596C177.594 21.014 177.924 21.344 178.335 21.586C178.753 21.828 179.274 21.949 179.897 21.949C180.388 21.949 180.836 21.8647 181.239 21.696C181.642 21.5273 181.987 21.278 182.273 20.948C182.559 20.6107 182.779 20.1853 182.933 19.672C183.087 19.1587 183.164 18.561 183.164 17.879L184.451 18.275C184.451 19.419 184.242 20.4053 183.824 21.234C183.413 22.0627 182.83 22.7007 182.075 23.148C181.327 23.588 180.443 23.808 179.424 23.808ZM183.384 23.5V20.321H183.164V11.62H185.133V23.5H183.384ZM196.452 23.5V17.549C196.452 16.9843 196.4 16.4417 196.298 15.921C196.202 15.4003 196.03 14.9347 195.781 14.524C195.539 14.106 195.209 13.776 194.791 13.534C194.38 13.292 193.859 13.171 193.229 13.171C192.737 13.171 192.29 13.2553 191.887 13.424C191.491 13.5853 191.15 13.8347 190.864 14.172C190.578 14.5093 190.354 14.9347 190.193 15.448C190.039 15.954 189.962 16.5517 189.962 17.241L188.675 16.845C188.675 15.6937 188.88 14.7073 189.291 13.886C189.709 13.0573 190.292 12.423 191.04 11.983C191.795 11.5357 192.682 11.312 193.702 11.312C194.472 11.312 195.128 11.433 195.671 11.675C196.213 11.917 196.664 12.2397 197.024 12.643C197.383 13.039 197.665 13.4863 197.871 13.985C198.076 14.4763 198.219 14.9787 198.3 15.492C198.388 15.998 198.432 16.4783 198.432 16.933V23.5H196.452ZM187.982 23.5V11.62H189.742V14.799H189.962V23.5H187.982ZM205.969 23.83C204.767 23.83 203.744 23.5623 202.9 23.027C202.064 22.4843 201.426 21.74 200.986 20.794C200.546 19.848 200.319 18.77 200.304 17.56C200.319 16.3207 200.55 15.2317 200.997 14.293C201.452 13.347 202.101 12.61 202.944 12.082C203.788 11.554 204.803 11.29 205.991 11.29C207.245 11.29 208.323 11.598 209.225 12.214C210.135 12.83 210.743 13.6733 211.051 14.744L209.115 15.327C208.866 14.6377 208.459 14.1023 207.894 13.721C207.337 13.3397 206.695 13.149 205.969 13.149C205.155 13.149 204.484 13.3397 203.956 13.721C203.428 14.095 203.036 14.6157 202.779 15.283C202.523 15.943 202.391 16.702 202.383 17.56C202.398 18.88 202.702 19.947 203.296 20.761C203.898 21.5677 204.789 21.971 205.969 21.971C206.747 21.971 207.392 21.795 207.905 21.443C208.419 21.0837 208.807 20.5667 209.071 19.892L211.051 20.409C210.641 21.5163 209.999 22.3633 209.126 22.95C208.254 23.5367 207.201 23.83 205.969 23.83ZM221.535 23.5V17.549C221.535 16.9843 221.484 16.4417 221.381 15.921C221.286 15.4003 221.114 14.9347 220.864 14.524C220.622 14.106 220.292 13.776 219.874 13.534C219.464 13.292 218.943 13.171 218.312 13.171C217.821 13.171 217.374 13.2553 216.97 13.424C216.574 13.5853 216.233 13.8347 215.947 14.172C215.661 14.5093 215.438 14.9347 215.276 15.448C215.122 15.954 215.045 16.5517 215.045 17.241L213.758 16.845C213.758 15.6937 213.964 14.7073 214.374 13.886C214.792 13.0573 215.375 12.423 216.123 11.983C216.879 11.5357 217.766 11.312 218.785 11.312C219.555 11.312 220.212 11.433 220.754 11.675C221.297 11.917 221.748 12.2397 222.107 12.643C222.467 13.039 222.749 13.4863 222.954 13.985C223.16 14.4763 223.303 14.9787 223.383 15.492C223.471 15.998 223.515 16.4783 223.515 16.933V23.5H221.535ZM213.065 23.5V7.66H214.825V16.405H215.045V23.5H213.065Z" fill="#656E5E"/>
</svg>
