<svg width="16" height="16" viewBox="0 0 16 16" fill="none" xmlns="http://www.w3.org/2000/svg">
<path fill-rule="evenodd" clip-rule="evenodd" d="M7.25 1.5C4.07436 1.5 1.5 4.07436 1.5 7.25C1.5 10.4256 4.07436 13 7.25 13C8.65779 13 9.94742 12.4941 10.947 11.6541L13.6465 14.3536C13.8417 14.5489 14.1583 14.5489 14.3536 14.3536C14.5488 14.1584 14.5488 13.8418 14.3536 13.6465L11.6541 10.947C12.4941 9.94745 13 8.65781 13 7.25C13 4.07436 10.4256 1.5 7.25 1.5ZM2.5 7.25C2.5 4.62665 4.62665 2.5 7.25 2.5C9.87335 2.5 12 4.62665 12 7.25C12 9.87335 9.87335 12 7.25 12C4.62665 12 2.5 9.87335 2.5 7.25Z" fill="#2B381F"/>
</svg>
